# xmcd
#
# Track frame offsets:
#	150
#	47585
#	65554
#	90842
#	113185
#	178408
#	213000
#	228837
#
# Disc length: 3152 seconds
#
# Revision: 1
# Processed by: cddbd v1.5.1PL2 Copyright (c) Steve Scherf et al.
# Submitted via: EasyCDDAExtractor 9.0.0.1
#
DISCID=610c4e08
DTITLE=Blue Oyster Cult - Sound FX San Diego 25-04-92 Disc 2
DYEAR=1992
DGENRE=Hard Rock
TTITLE0=Astronomy
TTITLE1=Still Burnin'
TTITLE2=Harvest Moon
TTITLE3=Burning For You
TTITLE4=Godzilla
TTITLE5=(Don't Fear) The Reaper
TTITLE6=Cold Grey Light Of Dawn
TTITLE7=The Red And The Black
EXTD=
EXTT0=
EXTT1=
EXTT2=
EXTT3=
EXTT4=
EXTT5=
EXTT6=
EXTT7=
PLAYORDER=
